<?xml version="1.0" encoding="utf-8"?>
<!-- Generator: Adobe Illustrator 22.0.1, SVG Export Plug-In . SVG Version: 6.00 Build 0)  -->
<svg version="1.1" id="Layer_1" xmlns="http://www.w3.org/2000/svg" xmlns:xlink="http://www.w3.org/1999/xlink" x="0px" y="0px"
	 viewBox="0 0 688.8 167.8" style="enable-background:new 0 0 688.8 167.8;" xml:space="preserve">
<style type="text/css">
	.st0{clip-path:url(#SVGID_2_);}
	.st1{fill:#74A04C;}
	.st2{opacity:0.85;fill:url(#_Path_2_1_);enable-background:new    ;}
	.st3{opacity:0.7;fill:url(#_Path_3_1_);enable-background:new    ;}
	.st4{fill:url(#_Path_5_1_);}
	.st5{clip-path:url(#SVGID_4_);}
	.st6{fill:#38ACD2;}
	.st7{opacity:0.85;fill:url(#_Path_7_1_);enable-background:new    ;}
	.st8{opacity:0.7;fill:url(#_Path_8_1_);enable-background:new    ;}
	.st9{fill:url(#_Path_10_1_);}
	.st10{clip-path:url(#SVGID_6_);}
	.st11{fill:#8B5E8F;}
	.st12{opacity:0.85;fill:url(#_Path_12_1_);enable-background:new    ;}
	.st13{opacity:0.7;fill:url(#_Path_13_1_);enable-background:new    ;}
	.st14{fill:url(#_Path_15_1_);}
	.st15{fill:white;stroke:#505657;stroke-miterlimit:10;}
</style>
<title>sandvine_logo</title>
<g>
	<g id="_Group_">
		<g id="_Group_2">
			<g id="_Clip_Group_">
				<g>
					<defs>
						<path id="SVGID_1_" d="M104.1,101c19.6-12.4,28.9-36,23.1-58.4c-0.7-0.6-1.4-1.2-2.1-1.7c-8.3-6.6-18.5-10.5-29.1-11.1
							c2.2,2.4,4.1,5,5.8,7.7c12.5,20.6,9.7,47-7,64.4c-0.4,0.4-0.8,0.8-1.2,1.2l-0.4,0.4c-0.4,0.4-0.8,0.8-1.3,1.2l-1,0.9l-0.8,0.7
							c-0.6,0.5-1.3,1-1.9,1.5C93.8,106.4,99.2,104.1,104.1,101z"/>
					</defs>
					<clipPath id="SVGID_2_">
						<use xlink:href="#SVGID_1_"  style="overflow:visible;"/>
					</clipPath>
					<g class="st0">
						<path id="_Path_" class="st1" d="M104.1,101c19.6-12.4,28.9-36,23.1-58.4c-0.7-0.6-1.4-1.2-2.1-1.7
							c-8.3-6.6-18.5-10.5-29.1-11.1c2.2,2.4,4.1,5,5.8,7.7c12.5,20.6,9.7,47-7,64.4c-0.4,0.4-0.8,0.8-1.2,1.2l-0.4,0.4
							c-0.4,0.4-0.8,0.8-1.3,1.2l-1,0.9l-0.8,0.7c-0.6,0.5-1.3,1-1.9,1.5C93.8,106.4,99.2,104.1,104.1,101z"/>

							<linearGradient id="_Path_2_1_" gradientUnits="userSpaceOnUse" x1="5037.9976" y1="6250.8604" x2="5082.0728" y2="6250.8604" gradientTransform="matrix(-0.51 0.86 0.86 0.51 -2696.4119 -7479.252)">
							<stop  offset="0" style="stop-color:#74A04C"/>
							<stop  offset="0.13" style="stop-color:#7EA657"/>
							<stop  offset="0.44" style="stop-color:#93B16E"/>
							<stop  offset="0.74" style="stop-color:#9FB87B"/>
							<stop  offset="1" style="stop-color:#A3BA80"/>
						</linearGradient>
						<path id="_Path_2" class="st2" d="M83.4,30.7c23.1-4.4,46.3,7.4,56.4,28.6c-0.1,0.9-0.3,1.9-0.4,2.8c-2,11-7.1,21.1-14.9,29.1
							c0.1-3.3-0.2-6.7-0.7-10c-4.1-25.1-24.3-43-48.1-44.6c-0.6,0-1.2-0.1-1.7-0.1h-0.6h-1.7h-1.3h-1c-0.8,0-1.6,0.1-2.5,0.2
							C72,33.8,77.6,31.8,83.4,30.7z"/>

							<linearGradient id="_Path_3_1_" gradientUnits="userSpaceOnUse" x1="3274.8887" y1="-7399.3301" x2="3286.0488" y2="-7404.6299" gradientTransform="matrix(1.14 -4.000000e-02 -3.000000e-02 -1.04 -3878.0542 -7515.4321)">
							<stop  offset="0" style="stop-color:#FFFFFF;stop-opacity:0"/>
							<stop  offset="1" style="stop-color:#FFFFFF;stop-opacity:0.4"/>
						</linearGradient>
						<path id="_Path_3" class="st3" d="M119.1,28.8c-1.9-2.9-4.1-5.5-6.6-8c1.1,0.1,2.3,0.2,3.4,0.3c2.3,2.4,4.4,4.9,6.2,7.6
							c14.6,21.7,10.5,49.4-8.2,67.1c-0.5,0.4-0.9,0.9-1.4,1.3l-0.5,0.4c-0.5,0.4-0.9,0.8-1.4,1.2l-1.1,0.9l-0.9,0.7
							c-0.3,0.2-0.5,0.4-0.8,0.6c-1.5,0.4-3,0.8-4.5,1.1c0.8-0.5,1.5-1,2.2-1.6l0.9-0.7l1.1-0.9c0.5-0.4,1-0.8,1.4-1.2l0.5-0.4
							l1.4-1.3L119.1,28.8z"/>
					</g>
				</g>
			</g>
			<path id="_Path_4" class="st1" d="M107.5,50.3c-2.2-7.7-6.1-14.7-11.5-20.6c0,0-0.7-0.1-0.7,0c-10-0.5-19.9,2-28.5,7
				C81.7,35.2,96.6,40.1,107.5,50.3z"/>
			<g id="_Group_3">

					<linearGradient id="_Path_5_1_" gradientUnits="userSpaceOnUse" x1="5492.2412" y1="6112.8345" x2="5500.0615" y2="6116.6143" gradientTransform="matrix(-0.4716 0.8818 0.8818 0.4716 -2712.2937 -7695.0405)">
					<stop  offset="0" style="stop-color:#505657;stop-opacity:0"/>
					<stop  offset="1" style="stop-color:#505657"/>
				</linearGradient>
				<path id="_Path_5" class="st4" d="M107.5,50.3c-2.2-7.7-6.1-14.7-11.5-20.6c0,0-0.7-0.1-0.7,0c-10-0.5-19.9,2-28.5,7
					C81.7,35.2,96.6,40.1,107.5,50.3z"/>
			</g>
		</g>
		<g id="_Group_4">
			<g id="_Clip_Group_2">
				<g>
					<defs>
						<path id="SVGID_3_" d="M51.1,89.2c1.1,23.2,17,42.9,39.5,48.9c0.9-0.3,1.7-0.6,2.5-1c9.9-4,18.3-10.9,24.1-19.9
							c-3.1,0.7-6.3,1.1-9.6,1.3c-24.1,0.8-45.6-14.8-52.5-37.8c-0.2-0.6-0.3-1.1-0.5-1.7l-0.1-0.6c-0.1-0.6-0.3-1.1-0.4-1.7
							s-0.2-0.9-0.3-1.3s-0.1-0.7-0.2-1c-0.1-0.8-0.3-1.6-0.4-2.4C51.5,77.6,50.8,83.4,51.1,89.2z"/>
					</defs>
					<clipPath id="SVGID_4_">
						<use xlink:href="#SVGID_3_"  style="overflow:visible;"/>
					</clipPath>
					<g class="st5">
						<path id="_Path_6" class="st6" d="M51.1,89.2c1.1,23.2,17,42.9,39.5,48.9c0.9-0.3,1.7-0.6,2.5-1c9.9-4,18.3-10.9,24.1-19.9
							c-3.1,0.7-6.3,1.1-9.6,1.3c-24.1,0.8-45.6-14.8-52.5-37.8c-0.2-0.6-0.3-1.1-0.5-1.7l-0.1-0.6c-0.1-0.6-0.3-1.1-0.4-1.7
							s-0.2-0.9-0.3-1.3s-0.1-0.7-0.2-1c-0.1-0.8-0.3-1.6-0.4-2.4C51.5,77.6,50.8,83.4,51.1,89.2z"/>

							<linearGradient id="_Path_7_1_" gradientUnits="userSpaceOnUse" x1="-2767.1558" y1="7691.978" x2="-2720.3103" y2="7696.1992" gradientTransform="matrix(-0.4977 -0.8673 -0.8673 0.4977 5400.4766 -6099.0127)">
							<stop  offset="0" style="stop-color:#38ACD2"/>
							<stop  offset="8.000000e-02" style="stop-color:#43AFD4"/>
							<stop  offset="0.32" style="stop-color:#62B9D9"/>
							<stop  offset="0.57" style="stop-color:#79C0DD"/>
							<stop  offset="0.8" style="stop-color:#86C4DF"/>
							<stop  offset="1" style="stop-color:#8BC5E0"/>
						</linearGradient>
						<path id="_Path_7" class="st7" d="M122.5,105.9c-7.6,22.3-29.3,36.6-52.8,34.9c-0.8-0.6-1.5-1.1-2.2-1.8
							c-8.6-7.1-14.8-16.6-18-27.3c2.9,1.7,5.9,3.2,9.1,4.4c23.9,8.9,49.4,0.1,62.5-19.8c0.3-0.5,0.6-1,0.9-1.5l0.3-0.5
							c0.3-0.5,0.6-1,0.9-1.5s0.4-0.8,0.6-1.2s0.3-0.6,0.5-0.9c0.4-0.7,0.7-1.5,1-2.3C125.4,94.4,124.4,100.3,122.5,105.9z"/>

							<linearGradient id="_Path_8_1_" gradientUnits="userSpaceOnUse" x1="8022.7354" y1="-1831.6636" x2="8033.8955" y2="-1836.9635" gradientTransform="matrix(-0.53 1.01 0.92 0.48 6015.2061 -7106.3262)">
							<stop  offset="0" style="stop-color:#FFFFFF;stop-opacity:0"/>
							<stop  offset="1" style="stop-color:#FFFFFF;stop-opacity:0.4"/>
						</linearGradient>
						<path id="_Path_8" class="st8" d="M106.4,138.1c3.5-0.3,6.9-0.9,10.2-1.8c-0.6,1-1.3,1.9-1.9,2.8c-3.2,0.8-6.4,1.4-9.7,1.6
							c-26.1,1.9-48.1-15.3-54.4-40.2c-0.1-0.6-0.3-1.2-0.4-1.8l-0.1-0.6c-0.1-0.6-0.3-1.2-0.4-1.8s-0.1-1-0.2-1.4s-0.1-0.7-0.2-1.1
							s-0.1-0.6-0.1-0.9c0.4-1.5,0.8-3,1.2-4.5c0.1,0.9,0.2,1.8,0.3,2.7c0.1,0.4,0.1,0.7,0.2,1.1s0.1,1,0.2,1.4
							c0.1,0.6,0.2,1.2,0.4,1.9c0,0.2,0.1,0.4,0.1,0.6c0.1,0.6,0.3,1.2,0.4,1.8L106.4,138.1z"/>
					</g>
				</g>
			</g>
			<path id="_Path_9" class="st6" d="M93.5,117.2c4.6,1.1,9.3,1.6,14,1.4c3.2-0.1,6.4-0.5,9.6-1.3l0.4-0.6c5.3-8.5,8.1-18.3,8-28.3
				C119.5,102.2,107.8,112.7,93.5,117.2z"/>
			<g id="_Group_5">

					<linearGradient id="_Path_10_1_" gradientUnits="userSpaceOnUse" x1="-2244.0798" y1="7895.8984" x2="-2236.2598" y2="7899.6885" gradientTransform="matrix(-0.5342 -0.8454 -0.8454 0.5342 5595.8662 -6005.8398)">
					<stop  offset="0" style="stop-color:#505657;stop-opacity:0"/>
					<stop  offset="1" style="stop-color:#505657"/>
				</linearGradient>
				<path id="_Path_10" class="st9" d="M93.5,117.2c4.6,1.1,9.3,1.6,14,1.4c3.2-0.1,6.4-0.5,9.6-1.3l0.4-0.6
					c5.3-8.5,8.1-18.3,8-28.3C119.5,102.2,107.8,112.7,93.5,117.2z"/>
			</g>
		</g>
		<g id="_Group_6">
			<g id="_Clip_Group_3">
				<g>
					<defs>
						<path id="SVGID_5_" d="M87.7,49.1C67.1,38.6,42,42.5,25.7,59c-0.2,0.9-0.3,1.8-0.4,2.7c-1.5,10.5,0.4,21.3,5.2,30.8
							c0.9-3.1,2.1-6.1,3.7-8.9c11.8-21.3,36.9-31.3,59-26.7c0.6,0.1,1.1,0.3,1.7,0.4l0.6,0.2c0.6,0.2,1.1,0.3,1.6,0.5l1.2,0.4
							l1,0.3c0.8,0.3,1.5,0.6,2.3,0.9C97.6,55.3,92.9,51.8,87.7,49.1z"/>
					</defs>
					<clipPath id="SVGID_6_">
						<use xlink:href="#SVGID_5_"  style="overflow:visible;"/>
					</clipPath>
					<g class="st10">
						<path id="_Path_11" class="st11" d="M87.7,49.1C67.1,38.6,42,42.5,25.7,59c-0.2,0.9-0.3,1.8-0.4,2.7
							c-1.5,10.5,0.4,21.3,5.2,30.8c0.9-3.1,2.1-6.1,3.7-8.9c11.8-21.3,36.9-31.3,59-26.7c0.6,0.1,1.1,0.3,1.7,0.4l0.6,0.2
							c0.6,0.2,1.1,0.3,1.6,0.5l1.2,0.4l1,0.3c0.8,0.3,1.5,0.6,2.3,0.9C97.6,55.3,92.9,51.8,87.7,49.1z"/>

							<linearGradient id="_Path_12_1_" gradientUnits="userSpaceOnUse" x1="24.8713" y1="94.5927" x2="68.9993" y2="94.5927" gradientTransform="matrix(1 0 0 -1 0 169.2)">
							<stop  offset="0" style="stop-color:#8B5E8F"/>
							<stop  offset="7.000000e-02" style="stop-color:#8F6393"/>
							<stop  offset="0.4" style="stop-color:#9E7AA2"/>
							<stop  offset="0.72" style="stop-color:#A887AC"/>
							<stop  offset="1" style="stop-color:#AB8CAF"/>
						</linearGradient>
						<path id="_Path_12" class="st12" d="M37.7,102.8c-15.5-17.7-17.1-43.6-4-63.1c0.9-0.4,1.8-0.7,2.6-1c10.4-3.9,21.8-4.6,32.7-2
							c-2.9,1.6-5.7,3.6-8.3,5.7c-19.6,16.3-24.7,42.8-13.9,64.1c0.3,0.5,0.5,1,0.8,1.6l0.3,0.5c0.3,0.5,0.6,1,0.9,1.5
							c0.2,0.4,0.5,0.8,0.7,1.1L50,112c0.5,0.7,0.9,1.4,1.4,2C46.3,111.1,41.6,107.3,37.7,102.8z"/>

							<linearGradient id="_Path_13_1_" gradientUnits="userSpaceOnUse" x1="1088.2257" y1="-165.5804" x2="1099.3857" y2="-170.8803" gradientTransform="matrix(-0.61 -0.96 -0.88 0.56 568.746 1202.9779)">
							<stop  offset="0" style="stop-color:#FFFFFF;stop-opacity:0"/>
							<stop  offset="1" style="stop-color:#FFFFFF;stop-opacity:0.4"/>
						</linearGradient>
						<path id="_Path_13" class="st13" d="M79.4,45.6c0.6,0.2,1.2,0.3,1.8,0.5l0.6,0.2c0.6,0.2,1.2,0.4,1.8,0.6s0.9,0.3,1.4,0.5
							l1,0.4c0.8,0.3,1.7,0.7,2.5,1.1c-1-1.1-2.1-2.2-3.3-3.3l-0.9-0.4l-1-0.4L82,44.3c-0.6-0.2-1.2-0.4-1.8-0.6l-0.6-0.2
							c-0.6-0.2-1.2-0.4-1.8-0.5c-24.8-7-50.7,3.5-62,27.1c-1.4,3-2.5,6.1-3.4,9.3c0.5,1,1,2.1,1.5,3.1c0.9-3.4,2.1-6.6,3.5-9.8
							L79.4,45.6"/>
					</g>
				</g>
			</g>
			<g id="_Group_7">
				<path id="_Path_14" class="st11" d="M42.4,72c-5.5,5.8-9.5,12.8-11.8,20.4c0,0,0.3,0.6,0.3,0.6c4.7,8.8,11.8,16.1,20.5,21
					C42.4,102,39.2,86.7,42.4,72z"/>
			</g>
			<g id="_Group_8">

					<linearGradient id="_Path_15_1_" gradientUnits="userSpaceOnUse" x1="221.9149" y1="184.0603" x2="229.735" y2="187.8403" gradientTransform="matrix(0.9991 -4.257317e-02 -4.257317e-02 -0.9991 -178.061 292.2957)">
					<stop  offset="0" style="stop-color:#505657;stop-opacity:0"/>
					<stop  offset="1" style="stop-color:#505657"/>
				</linearGradient>
				<path id="_Path_15" class="st14" d="M42.4,72c-5.5,5.8-9.5,12.8-11.8,20.4c0,0,0.3,0.6,0.3,0.6c4.7,8.8,11.8,16.1,20.5,21
					C42.4,102,39.2,86.7,42.4,72z"/>
			</g>
		</g>
	</g>
	<path class="st15" d="M185.3,127.8c-6.1-0.1-12.1-0.5-18.2-1.2c-1-0.1-2.1-0.7-2.1-1.8v-1.4c0-1.1,1.1-1.4,2.2-1.4h0.5
		c6.1,0.4,11.1,1.2,17.6,1.2c17.7,0,21.8-7.4,21.8-16.5c0-8.2-5-11.1-18-18.7l-7.4-4.3c-10.7-6.2-18.4-11.5-18.4-21.3
		c0-14.5,13.7-17.9,27.4-17.9c6.2,0,12.4,0.7,17.5,1.1c1.2,0.1,2,0.7,2,1.7v1.4c0,1.1-0.9,1.5-2.2,1.5c-2.6,0-11.4-1.1-17.3-1.1
		c-15.5,0-22,4.2-22,13.4c0,6.9,5.4,11,15.8,16.9l7.5,4.3c13,7.4,20.6,12.8,20.6,23S207.9,127.8,185.3,127.8z"/>
	<path class="st15" d="M283.2,127.4h-1.4c-0.9,0-1.6-0.6-1.9-1.4L270,96h-33.8l-9.6,30c-0.3,0.8-1,1.3-1.9,1.4h-1.5
		c-0.9,0.1-1.7-0.6-1.8-1.5c0-0.1,0-0.2,0-0.3c0-0.3,0-0.7,0.1-1l24-74.8c1-3.4,4.1-5.6,7.6-5.4c3.4-0.2,6.5,2,7.5,5.3l24,74.9
		c0.1,0.4,0.2,0.7,0.2,1.1C285,126.8,284.4,127.4,283.2,127.4z M256,51c-0.3-1.3-1.4-2.2-2.7-2.2c-1.3-0.1-2.5,0.8-2.7,2.1
		l-12.9,40.2h31.1L256,51z"/>
	<path class="st15" d="M350.1,127.8H350c-1.8,0-2.8,0-3.9-0.8c-0.9-0.7-1.6-1.6-2.1-2.6l-39.5-74.7c-0.2-0.4-0.5-0.8-0.9-0.8
		c-0.2,0-0.6,0.2-0.6,0.8V125c0.1,1.1-0.8,2-1.9,2.1c0,0-0.1,0-0.1,0h-1.2c-1.1,0-2-0.9-2-2c0,0,0-0.1,0-0.1V49.8
		c0-3.3,2.4-5.4,5.8-5.4s4.6,1.3,5.6,3.4l39.4,74.5c0.2,0.4,0.5,0.8,0.9,0.8s0.6-0.6,0.6-1v-75c-0.1-1.1,0.7-2,1.8-2.1
		c0,0,0.1,0,0.1,0h1.4c1.1,0,2,0.9,2,2c0,0,0,0.1,0,0.1v75.1C355.4,125.7,353.1,127.8,350.1,127.8z"/>
	<path class="st15" d="M395.4,127.8c-9.4,0-15.8-0.3-19.2-0.9c-1.1-0.2-1.9-1-2-2.1V47.4c0.1-1.1,0.9-1.9,2-2.1
		c3.4-0.6,9.8-0.9,19.2-0.9c19.9,0,34.2,9,34.2,34.8v13.7C429.6,118.4,415.3,127.8,395.4,127.8z M424.4,79.3
		c0-23.6-12.6-30.5-29.1-30.5c-6.8,0-10.9,0.3-16.1,0.7V123c5.2,0.3,9.3,0.4,16.1,0.4c16.4,0,29.1-7.2,29.1-30.5V79.3z"/>
	<path class="st15" d="M501.2,47.7l-24,74.6c-1.2,3.8-3.9,5.4-7.6,5.4s-6.5-1.7-7.6-5.4l-24-74.6c-0.1-0.2-0.1-0.5-0.1-0.8
		c-0.1-1,0.7-1.9,1.7-2c0.1,0,0.2,0,0.3,0h1.3c0.9,0.1,1.7,0.7,1.9,1.6l23.9,74.4c0.6,1.8,1.4,2.2,2.7,2.2s2.1-0.4,2.7-2.2
		l23.9-74.4c0.2-0.9,1-1.5,1.9-1.6h1.3c1-0.1,1.9,0.7,2,1.8c0,0.1,0,0.2,0,0.2C501.3,47.2,501.3,47.5,501.2,47.7z"/>
	<path class="st15" d="M519.1,127.1H518c-1.1,0-2-0.9-2-2c0,0,0-0.1,0-0.1V47.1c-0.1-1.1,0.8-2,1.9-2.1c0,0,0.1,0,0.1,0h1.2
		c1.1,0,2,0.9,2,2c0,0,0,0.1,0,0.1V125c0.1,1.1-0.8,2-1.9,2.1C519.2,127.1,519.2,127.1,519.1,127.1z"/>
	<path class="st15" d="M593.3,127.8h-0.1c-1.8,0-2.8,0-3.9-0.8c-0.9-0.7-1.6-1.6-2.1-2.6l-39.5-74.7c-0.2-0.4-0.5-0.8-0.9-0.8
		c-0.2,0-0.6,0.2-0.6,0.8V125c0.1,1.1-0.8,2-1.9,2.1c0,0-0.1,0-0.1,0H543c-1.1,0-2-0.9-2-2c0,0,0-0.1,0-0.1V49.8
		c0-3.3,2.3-5.4,5.7-5.4s4.6,1.3,5.6,3.4l39.4,74.5c0.2,0.4,0.5,0.8,0.9,0.8s0.6-0.6,0.6-1v-75c-0.1-1.1,0.7-2,1.8-2.1
		c0,0,0.1,0,0.1,0h1.4c1.1,0,2,0.9,2,2c0,0,0,0.1,0,0.1v75.1C598.6,125.7,596.2,127.8,593.3,127.8z"/>
	<path class="st15" d="M661.7,127.1h-30.2c-8.9,0-14.2-3.1-14.2-12.4V57.3c0-9.3,5.3-12.4,14.2-12.4h30.2c1.1-0.1,2.1,0.7,2.2,1.8
		c0,0,0,0.1,0,0.1v0.9c0,1.1-0.9,1.8-2.2,1.8h-30.2c-5.6,0-9,1-9,7.9v29.1h39.3c1.3,0,2.2,0.7,2.2,1.8v1.1c-0.1,1.1-1,1.9-2.1,1.9
		c0,0-0.1,0-0.1,0h-39.3v23.5c0,6.9,3.4,7.9,9,7.9h30.2c1.3,0,2.2,0.7,2.2,1.8v0.9c-0.1,1.1-1,2-2.1,1.9
		C661.8,127.1,661.8,127.1,661.7,127.1z"/>
</g>
</svg>
